# xmcd CD database file
#
# Track frame offsets:
#	150
#	16052
#	30455
#	47723
#	62195
#	81452
#	94440
#	113648
#	124250
#	143297
#	156302
#	173475
#	191345
#	207790
#	222935
#	238170
#	252295
#	268160
#	282797
#	297165
#	312550
#
# Disc length: 4326 seconds
#
# Revision: 0
# Processed by: cddbd v1.5.2PL0 Copyright (c) Steve Scherf et al.
# Submitted via: CDex 1.70beta2
#
DISCID=3110e415
DTITLE=ChartBreakers - ChartBreakers CGC-524
DYEAR=1900
DGENRE=Country
TTITLE0=Sammy Kershaw - Queen Of My Double Wide trailer
TTITLE1=Suzy Bogguss - Drive South
TTITLE2=Brooks and Dunn - Lost And Found
TTITLE3=Mary-Chapin Carpenter - The Bug
TTITLE4=Judds - Grandpa (Tell Me 'Bout The Good Old Days)
TTITLE5=Tracy Lawrence - Runnin' Behind
TTITLE6=Alabama - (There's A) Fire In The Night
TTITLE7=Clint Black - One More Payment
TTITLE8=Diamond Rio - Mama Don't Forget To Pray For Me
TTITLE9=Exile - Give Me One More Chance
TTITLE10=Vince Gill - Never Knew Lonely
TTITLE11=Little Texas - I'd Rather Miss You
TTITLE12=Kathy Mattea - Standing Knee Deep In A River
TTITLE13=Reba McEntire - I Know How He Feels
TTITLE14=Nitty Gritty Dirt Band - I've Been Lookin'
TTITLE15=Dolly Parton - I Will Always Love You
TTITLE16=Restless Heart - Big Dreams In A Small Town
TTITLE17=Shenandoah - Leavin's Been A Long Time Comin'
TTITLE18=George Strait - Ocean Front Property
TTITLE19=George Strait - So Much Like My Dad
TTITLE20=Sweethearts Of The Rodeo - Satisfy You
EXTD=YEAR: 1900
EXTT0=
EXTT1=
EXTT2=
EXTT3=
EXTT4=
EXTT5=
EXTT6=
EXTT7=
EXTT8=
EXTT9=
EXTT10=
EXTT11=
EXTT12=
EXTT13=
EXTT14=
EXTT15=
EXTT16=
EXTT17=
EXTT18=
EXTT19=
EXTT20=
PLAYORDER=
